<svg width="21" height="20" viewBox="0 0 21 20" fill="none" xmlns="http://www.w3.org/2000/svg">
<mask id="path-1-inside-1_326_517" fill="white">
<path fill-rule="evenodd" clip-rule="evenodd" d="M19.7084 6.90284C20.0758 6.99421 20.3514 7.17696 20.4433 7.54246C20.5351 7.81658 20.4433 8.18208 20.1677 8.36483L15.942 12.4767L16.9525 18.3247C17.0444 18.6902 16.8607 19.0557 16.5851 19.2384C16.4014 19.3298 16.2176 19.4212 16.0339 19.4212H15.5746L10.3385 16.6799L5.10235 19.4212C4.7349 19.6039 4.36745 19.5125 4.09187 19.3298C3.81628 19.147 3.63256 18.7815 3.72442 18.416L4.7349 12.5681L0.509253 8.4562C0.233667 8.27346 0.141805 7.90796 0.233667 7.54246C0.417391 7.17696 0.692976 6.90284 1.06042 6.90284L6.84772 5.98909L9.51172 0.780742C9.7873 0.14112 10.8896 0.14112 11.1652 0.780742L13.8292 6.08047L19.7084 6.90284Z"/>
</mask>
<path fill-rule="evenodd" clip-rule="evenodd" d="M19.7084 6.90284C20.0758 6.99421 20.3514 7.17696 20.4433 7.54246C20.5351 7.81658 20.4433 8.18208 20.1677 8.36483L15.942 12.4767L16.9525 18.3247C17.0444 18.6902 16.8607 19.0557 16.5851 19.2384C16.4014 19.3298 16.2176 19.4212 16.0339 19.4212H15.5746L10.3385 16.6799L5.10235 19.4212C4.7349 19.6039 4.36745 19.5125 4.09187 19.3298C3.81628 19.147 3.63256 18.7815 3.72442 18.416L4.7349 12.5681L0.509253 8.4562C0.233667 8.27346 0.141805 7.90796 0.233667 7.54246C0.417391 7.17696 0.692976 6.90284 1.06042 6.90284L6.84772 5.98909L9.51172 0.780742C9.7873 0.14112 10.8896 0.14112 11.1652 0.780742L13.8292 6.08047L19.7084 6.90284Z" fill="#FFD289"/>
<path d="M20.4433 7.54246L18.5036 8.02996L18.5224 8.10479L18.5469 8.17795L20.4433 7.54246ZM19.7084 6.90284L20.191 4.96195L20.0893 4.93665L19.9854 4.92212L19.7084 6.90284ZM20.1677 8.36483L19.0624 6.69802L18.9067 6.80122L18.7729 6.93145L20.1677 8.36483ZM15.942 12.4767L14.5473 11.0433L13.7918 11.7785L13.9713 12.8172L15.942 12.4767ZM16.9525 18.3247L14.9817 18.6652L14.9945 18.7393L15.0129 18.8122L16.9525 18.3247ZM16.5851 19.2384L17.4757 21.0291L17.5869 20.9738L17.6904 20.9052L16.5851 19.2384ZM15.5746 19.4212L14.647 21.193L15.0827 21.4212H15.5746V19.4212ZM10.3385 16.6799L11.2661 14.908L10.3385 14.4224L9.41086 14.908L10.3385 16.6799ZM5.10235 19.4212L5.99297 21.2119L6.01157 21.2027L6.02996 21.193L5.10235 19.4212ZM4.09187 19.3298L5.19718 17.663H5.19718L4.09187 19.3298ZM3.72442 18.416L5.66409 18.9035L5.68242 18.8306L5.69521 18.7566L3.72442 18.416ZM4.7349 12.5681L6.7057 12.9086L6.88518 11.8698L6.12968 11.1347L4.7349 12.5681ZM0.509253 8.4562L1.90403 7.02282L1.7702 6.89259L1.61457 6.78939L0.509253 8.4562ZM0.233667 7.54246L-1.55328 6.64422L-1.65228 6.84117L-1.70601 7.05495L0.233667 7.54246ZM1.06042 6.90284V8.90284H1.21734L1.37234 8.87837L1.06042 6.90284ZM6.84772 5.98909L7.15964 7.96462L8.16489 7.8059L8.62832 6.89984L6.84772 5.98909ZM9.51172 0.780742L11.2923 1.69149L11.3224 1.63274L11.3485 1.57213L9.51172 0.780742ZM11.1652 0.780742L9.32846 1.57212L9.3518 1.62629L9.37829 1.67898L11.1652 0.780742ZM13.8292 6.08047L12.0423 6.9787L12.5134 7.91588L13.5522 8.06118L13.8292 6.08047ZM22.383 7.05495C22.041 5.69457 20.9453 5.1495 20.191 4.96195L19.2257 8.84373C19.2251 8.84357 19.1933 8.8358 19.1414 8.81231C19.0883 8.78832 19.0073 8.74479 18.9167 8.67106C18.7075 8.50078 18.5625 8.26427 18.5036 8.02996L22.383 7.05495ZM21.273 10.0316C22.3877 9.29248 22.6853 7.93852 22.3396 6.90697L18.5469 8.17795C18.4495 7.8873 18.4646 7.61682 18.5326 7.39687C18.6041 7.16584 18.7655 6.89492 19.0624 6.69802L21.273 10.0316ZM17.3368 13.9101L21.5625 9.79821L18.7729 6.93145L14.5473 11.0433L17.3368 13.9101ZM18.9233 17.9841L17.9128 12.1361L13.9713 12.8172L14.9817 18.6652L18.9233 17.9841ZM17.6904 20.9052C18.5684 20.323 19.2197 19.1401 18.8922 17.8372L15.0129 18.8122C14.9405 18.5244 14.984 18.258 15.0698 18.0587C15.1513 17.8696 15.2871 17.6994 15.4798 17.5716L17.6904 20.9052ZM16.0339 21.4212C16.7788 21.4212 17.4072 21.0632 17.4757 21.0291L15.6945 17.4477C15.6445 17.4725 15.6213 17.4839 15.6021 17.4929C15.585 17.5009 15.5905 17.4976 15.6105 17.4902C15.6426 17.4782 15.7999 17.4212 16.0339 17.4212V21.4212ZM15.5746 21.4212H16.0339V17.4212H15.5746V21.4212ZM9.41086 18.4518L14.647 21.193L16.5022 17.6493L11.2661 14.908L9.41086 18.4518ZM6.02996 21.193L11.2661 18.4518L9.41086 14.908L4.17473 17.6493L6.02996 21.193ZM2.98655 20.9966C3.66764 21.4482 4.80507 21.8027 5.99297 21.2119L4.21172 17.6304C4.40511 17.5342 4.62588 17.5034 4.82561 17.5299C5.00634 17.5539 5.12934 17.618 5.19718 17.663L2.98655 20.9966ZM1.78474 17.9285C1.45727 19.2315 2.10852 20.4143 2.98655 20.9966L5.19718 17.663C5.38989 17.7907 5.52565 17.961 5.60712 18.1501C5.69299 18.3494 5.73641 18.6158 5.66409 18.9035L1.78474 17.9285ZM2.7641 12.2275L1.75362 18.0755L5.69521 18.7566L6.7057 12.9086L2.7641 12.2275ZM-0.88553 9.88959L3.34012 14.0014L6.12968 11.1347L1.90403 7.02282L-0.88553 9.88959ZM-1.70601 7.05495C-1.92862 7.94068 -1.80697 9.32003 -0.596064 10.123L1.61457 6.78939C1.92383 6.99447 2.08857 7.28119 2.15594 7.51571C2.21973 7.73781 2.20176 7.91691 2.17334 8.02996L-1.70601 7.05495ZM1.06042 4.90284C-0.449557 4.90284 -1.24802 6.03695 -1.55328 6.64422L2.02061 8.4407C2.03073 8.42056 1.9916 8.51173 1.8545 8.62537C1.69333 8.75896 1.41504 8.90284 1.06042 8.90284V4.90284ZM6.53581 4.01356L0.748512 4.92731L1.37234 8.87837L7.15964 7.96462L6.53581 4.01356ZM7.73112 -0.130009L5.06712 5.07834L8.62832 6.89984L11.2923 1.69149L7.73112 -0.130009ZM13.002 -0.010641C12.451 -1.28943 11.2034 -1.69897 10.3385 -1.69897C9.4736 -1.69897 8.22593 -1.28943 7.67495 -0.0106433L11.3485 1.57213C11.0731 2.21129 10.5144 2.30103 10.3385 2.30103C10.1626 2.30103 9.60386 2.21129 9.32846 1.57212L13.002 -0.010641ZM15.6162 5.18223L12.9522 -0.117495L9.37829 1.67898L12.0423 6.9787L15.6162 5.18223ZM19.9854 4.92212L14.1063 4.09975L13.5522 8.06118L19.4313 8.88355L19.9854 4.92212Z" fill="#FFD289" mask="url(#path-1-inside-1_326_517)"/>
</svg>
